<svg width="32" height="32" viewBox="0 0 32 32" fill="none" xmlns="http://www.w3.org/2000/svg">
  <path d="M28 11.9997H26.9333C26.7955 11.4014 26.5613 10.8295 26.24 10.3063L26.9866 9.55967C27.2051 9.30461 27.3192 8.9765 27.3063 8.64094C27.2933 8.30537 27.1542 7.98705 26.9167 7.74959C26.6793 7.51213 26.361 7.37302 26.0254 7.36006C25.6898 7.3471 25.3617 7.46124 25.1066 7.67967L24.36 8.42634C23.8368 8.10502 23.2649 7.87086 22.6666 7.73301V6.66634C22.6666 6.31272 22.5262 5.97358 22.2761 5.72353C22.0261 5.47348 21.6869 5.33301 21.3333 5.33301C20.9797 5.33301 20.6406 5.47348 20.3905 5.72353C20.1405 5.97358 20 6.31272 20 6.66634V7.73301C19.4052 7.86876 18.8374 8.10311 18.32 8.42634L17.56 7.67967C17.3049 7.46124 16.9768 7.3471 16.6412 7.36006C16.3057 7.37302 15.9874 7.51213 15.7499 7.74959C15.5124 7.98705 15.3733 8.30537 15.3604 8.64094C15.3474 8.9765 15.4615 9.30461 15.68 9.55967L16.4266 10.3197C16.3066 10.5197 16.2133 10.7463 16.1066 10.9597C15.4211 10.7662 14.7123 10.6675 14 10.6663C12.0785 10.6652 10.2207 11.3558 8.76648 12.6118C7.31222 13.8677 6.3586 15.6051 6.07998 17.5063C4.9949 17.8106 4.05659 18.4973 3.43833 19.4395C2.82008 20.3817 2.56366 21.5158 2.71643 22.6323C2.8692 23.7488 3.42085 24.7724 4.26947 25.5139C5.1181 26.2554 6.20638 26.6647 7.33332 26.6663H19.56C21.0912 26.6663 22.5596 26.0581 23.6423 24.9754C24.7251 23.8927 25.3333 22.4242 25.3333 20.893C25.3321 20.185 25.1964 19.4837 24.9333 18.8263L25.1066 18.9863C25.355 19.2327 25.6902 19.3715 26.04 19.373C26.2155 19.374 26.3894 19.3404 26.5519 19.274C26.7143 19.2077 26.8621 19.1099 26.9866 18.9863C27.235 18.7365 27.3744 18.3986 27.3744 18.0463C27.3744 17.6941 27.235 17.3562 26.9866 17.1063L26.24 16.3597C26.5613 15.8365 26.7955 15.2646 26.9333 14.6663H28C28.3536 14.6663 28.6927 14.5259 28.9428 14.2758C29.1928 14.0258 29.3333 13.6866 29.3333 13.333C29.3333 12.9794 29.1928 12.6402 28.9428 12.3902C28.6927 12.1402 28.3536 11.9997 28 11.9997ZM19.56 23.9997H7.33332C6.80288 23.9997 6.29417 23.789 5.9191 23.4139C5.54403 23.0388 5.33332 22.5301 5.33332 21.9997C5.33332 21.4692 5.54403 20.9605 5.9191 20.5855C6.29417 20.2104 6.80288 19.9997 7.33332 19.9997C7.68694 19.9997 8.02608 19.8592 8.27612 19.6091C8.52617 19.3591 8.66665 19.02 8.66665 18.6663C8.67237 17.4073 9.12335 16.1908 9.93977 15.2323C10.7562 14.2738 11.8854 13.635 13.1275 13.4291C14.3696 13.2231 15.6446 13.4632 16.7267 14.107C17.8088 14.7507 18.6282 15.7565 19.04 16.9463C19.1162 17.1755 19.2532 17.3796 19.4364 17.5369C19.6195 17.6943 19.842 17.7989 20.08 17.8397C20.8368 17.9812 21.5141 18.3986 21.9806 19.0112C22.447 19.6237 22.6695 20.3876 22.6047 21.1547C22.5399 21.9219 22.1926 22.6377 21.63 23.1634C21.0675 23.689 20.3298 23.987 19.56 23.9997ZM23.56 15.533C23.3249 15.7542 23.0545 15.9344 22.76 16.0663C22.3166 15.7776 21.8368 15.549 21.3333 15.3863C20.7207 14.0487 19.7579 12.9016 18.5466 12.0663C18.6923 11.7243 18.9003 11.4124 19.16 11.1463C19.7566 10.5934 20.5399 10.2862 21.3533 10.2862C22.1667 10.2862 22.9501 10.5934 23.5466 11.1463V11.1463C24.1185 11.7359 24.4383 12.525 24.4383 13.3463C24.4383 14.1677 24.1185 14.9567 23.5466 15.5463L23.56 15.533Z" fill="#FFA000" />
</svg>