<svg width="18.000000" height="18.000000" viewBox="0 0 18 18" fill="none" xmlns="http://www.w3.org/2000/svg" xmlns:xlink="http://www.w3.org/1999/xlink">
	<desc>
			Created with Pixso.
	</desc>
	<defs>
		<clipPath id="clip2_155">
			<rect id="Facebook" rx="0.000000" width="17.000000" height="17.000000" transform="translate(0.500000 0.500000)" fill="white" fill-opacity="0"/>
		</clipPath>
	</defs>
	<rect id="Facebook" rx="0.000000" width="17.000000" height="17.000000" transform="translate(0.500000 0.500000)" fill="#FFFFFF" fill-opacity="0"/>
	<g clip-path="url(#clip2_155)">
		<path id="Vector" d="M17 0L0.99 0C0.44 0 0 0.44 0 0.99L0 17C0 17.55 0.44 18 0.99 18L9.61 18L9.61 11.05L7.26 11.05L7.26 8.31L9.6 8.31L9.6 6.31C9.6 3.98 11.02 2.72 13.09 2.72C13.8 2.72 14.5 2.76 15.2 2.84L15.2 5.27L13.77 5.27C12.64 5.27 12.42 5.8 12.42 6.59L12.42 8.32L15.12 8.32L14.77 11.05L12.42 11.05L12.42 18L17 18C17.55 18 18 17.55 18 17L18 0.99C18 0.44 17.55 0 17 0Z" fill="#262626" fill-opacity="1.000000" fill-rule="nonzero"/>
	</g>
</svg>
