<svg width="100.000000" height="66.000000" viewBox="0 0 100 66" fill="none" xmlns="http://www.w3.org/2000/svg" xmlns:xlink="http://www.w3.org/1999/xlink">
	<desc>
			Created with Pixso.
	</desc>
	<defs>
		<clipPath id="clip2_100">
			<rect id="Logo" rx="0.000000" width="99.342102" height="65.342102" transform="translate(0.328947 0.328947)" fill="white" fill-opacity="0"/>
		</clipPath>
	</defs>
	<g clip-path="url(#clip2_100)">
		<path id="DUNDER MIFFLIN" d="M37.24 26L40.12 1.03L33.81 1.03Q32.55 9.7 32.01 18.75L31.3 9.26Q30.73 2.13 30.59 1.03L23.84 1.03Q22.4 11.62 22.05 18.15L21.37 9.74L20.71 1.03L14.4 1.03L17.3 26L25.36 26Q26.78 16.05 27.17 12.92C27.73 17.8 28.38 22.16 29.12 26L37.24 26ZM47.64 4.28L47.64 1.03L41.23 1.03L41.23 4.28L47.64 4.28ZM57.08 12.07L62.6 12.07L62.6 10.88C62.6 9.86 62.55 9.1 62.44 8.62C62.33 8.13 62.02 7.61 61.51 7.04C61 6.48 60.27 6.02 59.32 5.68C58.37 5.34 57.22 5.16 55.86 5.16Q53.81 5.16 52.26 5.8C51.23 6.22 50.5 6.82 50.06 7.59C49.63 8.37 49.42 9.57 49.42 11.21C49.42 12.36 49.62 13.35 50.02 14.19C50.42 15.03 51.53 15.96 53.36 16.99C55.54 18.2 56.75 18.93 56.99 19.18C57.21 19.43 57.33 20.04 57.33 21.01C57.33 21.72 57.24 22.19 57.06 22.41Q57.06 22.42 57.06 22.42Q56.79 22.74 56.14 22.74Q55.76 22.74 55.54 22.56Q55.4 22.44 55.31 22.25C55.18 21.92 55.11 21.2 55.11 20.1L55.11 18.81L49.59 18.81L49.59 19.8Q49.59 22.36 50.22 23.62Q50.85 24.88 52.54 25.62C53.66 26.12 55.02 26.37 56.6 26.37Q58.75 26.37 60.26 25.68C61.28 25.22 62 24.57 62.43 23.72C62.86 22.87 63.08 21.62 63.08 19.95C63.08 18.46 62.8 17.32 62.23 16.54Q61.38 15.37 58.67 14.05Q56.63 13.04 55.98 12.52C55.54 12.17 55.28 11.85 55.19 11.55C55.1 11.26 55.06 10.8 55.06 10.17C55.06 9.71 55.15 9.37 55.32 9.13C55.5 8.9 55.76 8.79 56.11 8.79C56.54 8.79 56.81 8.91 56.92 9.16C57.03 9.42 57.08 10.02 57.08 10.96L57.08 12.07ZM70.97 7.34L71.08 5.53L64.74 5.53L64.74 28.91L70.97 28.91L70.97 24.22C71.52 24.93 72.12 25.47 72.78 25.83C73.44 26.19 74.15 26.37 74.92 26.37C75.89 26.37 76.71 26.13 77.4 25.66C78.08 25.2 78.53 24.57 78.75 23.78C78.97 23 79.08 21.67 79.08 19.81L79.08 11.19C79.08 9.57 79 8.42 78.82 7.74C78.65 7.06 78.21 6.46 77.5 5.94C76.8 5.42 75.96 5.16 75 5.16C74.21 5.16 73.48 5.34 72.81 5.7C72.14 6.06 71.53 6.61 70.97 7.34ZM47.64 26L47.64 5.53L41.23 5.53L41.23 26L47.64 26ZM72.72 9.19C72.81 9.46 72.85 10.22 72.85 11.49L72.85 20.26Q72.85 21.89 72.71 22.32C72.61 22.6 72.36 22.74 71.96 22.74C71.55 22.74 71.28 22.59 71.16 22.28C71.03 21.97 70.97 21.2 70.97 19.97L70.97 11.49C70.97 10.3 71.03 9.56 71.15 9.25C71.27 8.94 71.53 8.79 71.94 8.79C72.37 8.79 72.62 8.92 72.72 9.19ZM22.44 34.64L22.44 29.03L16.21 29.03L16.21 54L22.44 54L22.44 39.39C22.44 38.35 22.51 37.66 22.64 37.31C22.77 36.96 23.03 36.79 23.41 36.79C23.82 36.79 24.09 36.96 24.21 37.3C24.32 37.64 24.38 38.4 24.38 39.59L24.38 54L30.61 54L30.61 39.89C30.61 37.96 30.53 36.64 30.36 35.92C30.19 35.19 29.72 34.55 28.96 34C28.19 33.44 27.26 33.16 26.17 33.16C25.46 33.16 24.8 33.29 24.18 33.53C23.55 33.78 22.98 34.15 22.44 34.64ZM13.16 34.03L13.16 30.8L6.91 30.8L6.91 34.03L5.57 34.03L5.57 37.26L6.91 37.26L6.91 47.66Q6.91 50.71 7.08 51.54C7.2 52.09 7.48 52.57 7.95 53C8.41 53.43 8.94 53.7 9.55 53.82C10.16 53.94 11.17 54 12.59 54L15.1 54L15.1 50.7C14.08 50.7 13.51 50.62 13.37 50.46Q13.16 50.23 13.16 48.21L13.16 37.26L14.84 37.26L14.84 34.03L13.16 34.03ZM92.57 34.03L92.57 30.8L86.32 30.8L86.32 34.03L84.98 34.03L84.98 37.26L86.32 37.26L86.32 47.66C86.32 49.69 86.38 50.99 86.49 51.54C86.61 52.09 86.89 52.57 87.36 53C87.82 53.43 88.35 53.7 88.96 53.82C89.57 53.94 90.58 54 92 54L94.51 54L94.51 50.7C93.49 50.7 92.91 50.62 92.78 50.46C92.64 50.31 92.57 49.56 92.57 48.21L92.57 37.26L94.25 37.26L94.25 34.03L92.57 34.03ZM38.8 44.13L46.86 44.13L46.86 41.41Q46.86 38.44 46.18 36.79Q46.01 36.38 45.77 36.01Q45.06 34.9 43.79 34.16C42.65 33.49 41.21 33.16 39.46 33.16Q37.32 33.16 35.67 33.99C34.57 34.54 33.78 35.33 33.3 36.36C32.81 37.4 32.57 38.81 32.57 40.6L32.57 46.56Q32.57 48.84 32.89 50.04C33.11 50.84 33.5 51.57 34.06 52.23C34.62 52.89 35.4 53.41 36.41 53.79C37.42 54.17 38.58 54.37 39.9 54.37C41.25 54.37 42.38 54.17 43.28 53.79C44.18 53.4 44.92 52.82 45.51 52.05Q46.39 50.9 46.63 49.88C46.79 49.2 46.86 48.23 46.86 46.96L46.86 45.45L40.96 45.45L40.96 48.15C40.96 49.17 40.88 49.85 40.72 50.21C40.56 50.56 40.24 50.74 39.77 50.74C39.39 50.74 39.13 50.61 39 50.34C38.87 50.07 38.8 49.48 38.8 48.55L38.8 44.13ZM62.36 41.26L68.24 41.26C68.24 39.34 68.05 37.85 67.67 36.8C67.29 35.75 66.52 34.89 65.37 34.2C64.22 33.51 62.83 33.16 61.2 33.16C59.57 33.16 58.18 33.51 57.04 34.2C55.9 34.9 55.16 35.69 54.81 36.57C54.46 37.46 54.28 38.77 54.28 40.5L54.28 46.32C54.28 48.31 54.49 49.85 54.92 50.93C55.35 52.02 56.08 52.86 57.1 53.46C58.13 54.06 59.52 54.37 61.28 54.37C62.66 54.37 63.82 54.15 64.75 53.71C65.69 53.27 66.44 52.63 67.03 51.77C67.61 50.91 67.95 50.07 68.06 49.25C68.17 48.44 68.23 47.21 68.24 45.58L62.69 45.58L62.69 48.01C62.69 49.07 62.61 49.79 62.46 50.17C62.31 50.55 62.03 50.74 61.61 50.74C61.25 50.74 60.97 50.56 60.79 50.19C60.6 49.83 60.51 49.28 60.51 48.55L60.51 38.9C60.51 38.01 60.57 37.43 60.7 37.17C60.82 36.92 61.06 36.79 61.42 36.79C61.78 36.79 62.03 36.93 62.16 37.23C62.29 37.52 62.36 38.08 62.36 38.9L62.36 41.26ZM69.81 41.46L75.65 41.46L75.65 39.32C75.65 38.17 75.7 37.47 75.81 37.2C75.91 36.92 76.17 36.79 76.59 36.79C76.96 36.79 77.23 36.95 77.39 37.27C77.55 37.6 77.63 38.29 77.63 39.36C77.63 40.22 77.55 40.78 77.41 41.06C77.27 41.34 76.17 41.88 74.13 42.68C72.21 43.42 71.02 44.06 70.53 44.62C70.05 45.18 69.81 46.22 69.81 47.75L69.81 49.43Q69.81 52.53 71.17 53.45C72.08 54.06 73.08 54.37 74.17 54.37C75.01 54.37 75.72 54.18 76.32 53.82C76.93 53.45 77.42 52.91 77.8 52.18L77.8 54L83.86 54L83.86 43.73C83.86 40.34 83.75 38.11 83.53 37.03C83.32 35.94 82.67 35.03 81.6 34.28C80.54 33.54 78.95 33.16 76.84 33.16C75.08 33.16 73.65 33.49 72.55 34.15C71.45 34.81 70.72 35.57 70.36 36.42C69.99 37.28 69.81 38.5 69.81 40.09L69.81 41.46ZM40.62 39.3L40.62 40.8L38.8 40.8L38.8 39.3C38.8 38.15 38.85 37.44 38.95 37.18Q38.99 37.1 39.03 37.04Q39.24 36.79 39.76 36.79C40.11 36.79 40.34 36.94 40.45 37.25Q40.62 37.71 40.62 39.3ZM75.89 46.1C76.05 45.61 76.63 45 77.63 44.27L77.63 48.47C77.63 49.5 77.57 50.14 77.45 50.38C77.33 50.62 77.08 50.74 76.69 50.74C76.27 50.74 76 50.59 75.86 50.28C75.72 49.97 75.65 49.29 75.65 48.23C75.65 47.3 75.73 46.59 75.89 46.1Z" fill="#FFFFFF" fill-opacity="1.000000" fill-rule="evenodd"/>
	</g>
</svg>
