<svg width="18.000000" height="18.000000" viewBox="0 0 18 18" fill="none" xmlns="http://www.w3.org/2000/svg" xmlns:xlink="http://www.w3.org/1999/xlink">
	<desc>
			Created with Pixso.
	</desc>
	<defs>
		<clipPath id="clip2_153">
			<rect id="Twitter" rx="0.000000" width="17.000000" height="17.000000" transform="translate(0.500000 0.500000)" fill="white" fill-opacity="0"/>
		</clipPath>
	</defs>
	<rect id="Twitter" rx="0.000000" width="17.000000" height="17.000000" transform="translate(0.500000 0.500000)" fill="#FFFFFF" fill-opacity="0"/>
	<g clip-path="url(#clip2_153)">
		<path id="Vector" d="M5.66 16.31C12.45 16.31 16.16 10.68 16.16 5.8C16.16 5.64 16.16 5.48 16.15 5.32C16.88 4.8 17.5 4.15 18 3.41C17.32 3.71 16.61 3.91 15.87 3.99C16.64 3.53 17.22 2.81 17.5 1.95C16.77 2.38 15.98 2.68 15.15 2.85C14.6 2.25 13.86 1.86 13.06 1.73C12.26 1.6 11.43 1.74 10.72 2.12C10 2.5 9.43 3.11 9.09 3.85C8.76 4.59 8.68 5.42 8.86 6.21C7.39 6.14 5.95 5.76 4.64 5.09C3.33 4.43 2.18 3.5 1.25 2.36C0.78 3.17 0.63 4.13 0.84 5.05C1.06 5.96 1.61 6.76 2.39 7.29C1.8 7.27 1.23 7.11 0.71 6.82C0.71 6.84 0.71 6.85 0.71 6.87C0.72 7.72 1.01 8.55 1.55 9.21C2.09 9.87 2.84 10.32 3.68 10.49C3.13 10.64 2.56 10.66 2.01 10.55C2.25 11.29 2.71 11.93 3.32 12.39C3.94 12.85 4.69 13.1 5.46 13.12C4.15 14.15 2.54 14.7 0.87 14.7C0.58 14.7 0.29 14.68 0 14.65C1.68 15.73 3.65 16.31 5.66 16.31L5.66 16.31Z" fill="#262626" fill-opacity="1.000000" fill-rule="nonzero"/>
	</g>
</svg>
